<svg width="1440" height="597" viewBox="0 0 1440 597" fill="none" xmlns="http://www.w3.org/2000/svg">
<g id="Testimonials" clip-path="url(#clip0_505_436)">
<rect width="1440" height="597" fill="white"/>
<g id="Depoimento" filter="url(#filter0_d_505_436)">
<rect x="-45" y="229" width="494" height="236" rx="11.1955" fill="white" shape-rendering="crispEdges"/>
<rect x="-44.3003" y="229.7" width="492.601" height="234.601" rx="10.4958" stroke="#EFF2F7" stroke-width="1.39943" shape-rendering="crispEdges"/>
<g id="Google__G__logo 1">
<path id="Vector" d="M423.56 265.25C423.56 264.47 423.49 263.72 423.36 263H413V267.26H418.92C418.66 268.63 417.88 269.79 416.71 270.57V273.34H420.28C422.36 271.42 423.56 268.6 423.56 265.25Z" fill="#4285F4"/>
<path id="Vector_2" d="M413 276C415.97 276 418.46 275.02 420.28 273.34L416.71 270.57C415.73 271.23 414.48 271.63 413 271.63C410.14 271.63 407.71 269.7 406.84 267.1H403.18V269.94C404.99 273.53 408.7 276 413 276Z" fill="#34A853"/>
<path id="Vector_3" d="M406.84 267.09C406.62 266.43 406.49 265.73 406.49 265C406.49 264.27 406.62 263.57 406.84 262.91V260.07H403.18C402.43 261.55 402 263.22 402 265C402 266.78 402.43 268.45 403.18 269.93L406.03 267.71L406.84 267.09Z" fill="#FBBC05"/>
<path id="Vector_4" d="M413 258.38C414.62 258.38 416.06 258.94 417.21 260.02L420.36 256.87C418.45 255.09 415.97 254 413 254C408.7 254 404.99 256.47 403.18 260.07L406.84 262.91C407.71 260.31 410.14 258.38 413 258.38Z" fill="#EA4335"/>
</g>
<g id="Stars">
<path id="Star 1" d="M-4.31879 307.917C-4.21373 307.615 -3.78627 307.615 -3.68121 307.917L-1.96108 312.866C-1.91473 312.999 -1.7903 313.089 -1.64917 313.092L3.58877 313.199C3.90869 313.206 4.04078 313.612 3.78579 313.805L-0.389049 316.971C-0.501536 317.056 -0.549066 317.202 -0.508189 317.337L1.00891 322.352C1.10157 322.658 0.755749 322.909 0.493093 322.727L-3.80723 319.734C-3.9231 319.654 -4.0769 319.654 -4.19277 319.734L-8.49309 322.727C-8.75575 322.909 -9.10157 322.658 -9.00891 322.352L-7.49181 317.337C-7.45093 317.202 -7.49846 317.056 -7.61095 316.971L-11.7858 313.805C-12.0408 313.612 -11.9087 313.206 -11.5888 313.199L-6.35083 313.092C-6.2097 313.089 -6.08527 312.999 -6.03892 312.866L-4.31879 307.917Z" fill="#FFAB00"/>
<path id="Star 2" d="M17.6812 307.917C17.7863 307.615 18.2137 307.615 18.3188 307.917L20.0389 312.866C20.0853 312.999 20.2097 313.089 20.3508 313.092L25.5888 313.199C25.9087 313.206 26.0408 313.612 25.7858 313.805L21.611 316.971C21.4985 317.056 21.4509 317.202 21.4918 317.337L23.0089 322.352C23.1016 322.658 22.7557 322.909 22.4931 322.727L18.1928 319.734C18.0769 319.654 17.9231 319.654 17.8072 319.734L13.5069 322.727C13.2443 322.909 12.8984 322.658 12.9911 322.352L14.5082 317.337C14.5491 317.202 14.5015 317.056 14.389 316.971L10.2142 313.805C9.95922 313.612 10.0913 313.206 10.4112 313.199L15.6492 313.092C15.7903 313.089 15.9147 312.999 15.9611 312.866L17.6812 307.917Z" fill="#FFAB00"/>
<path id="Star 3" d="M39.6812 307.917C39.7863 307.615 40.2137 307.615 40.3188 307.917L42.0389 312.866C42.0853 312.999 42.2097 313.089 42.3508 313.092L47.5888 313.199C47.9087 313.206 48.0408 313.612 47.7858 313.805L43.611 316.971C43.4985 317.056 43.4509 317.202 43.4918 317.337L45.0089 322.352C45.1016 322.658 44.7557 322.909 44.4931 322.727L40.1928 319.734C40.0769 319.654 39.9231 319.654 39.8072 319.734L35.5069 322.727C35.2443 322.909 34.8984 322.658 34.9911 322.352L36.5082 317.337C36.5491 317.202 36.5015 317.056 36.389 316.971L32.2142 313.805C31.9592 313.612 32.0913 313.206 32.4112 313.199L37.6492 313.092C37.7903 313.089 37.9147 312.999 37.9611 312.866L39.6812 307.917Z" fill="#FFAB00"/>
<path id="Star 4" d="M61.6812 307.917C61.7863 307.615 62.2137 307.615 62.3188 307.917L64.0389 312.866C64.0853 312.999 64.2097 313.089 64.3508 313.092L69.5888 313.199C69.9087 313.206 70.0408 313.612 69.7858 313.805L65.611 316.971C65.4985 317.056 65.4509 317.202 65.4918 317.337L67.0089 322.352C67.1016 322.658 66.7557 322.909 66.4931 322.727L62.1928 319.734C62.0769 319.654 61.9231 319.654 61.8072 319.734L57.5069 322.727C57.2443 322.909 56.8984 322.658 56.9911 322.352L58.5082 317.337C58.5491 317.202 58.5015 317.056 58.389 316.971L54.2142 313.805C53.9592 313.612 54.0913 313.206 54.4112 313.199L59.6492 313.092C59.7903 313.089 59.9147 312.999 59.9611 312.866L61.6812 307.917Z" fill="#FFAB00"/>
<path id="Star 5" d="M83.6812 307.917C83.7863 307.615 84.2137 307.615 84.3188 307.917L86.0389 312.866C86.0853 312.999 86.2097 313.089 86.3508 313.092L91.5888 313.199C91.9087 313.206 92.0408 313.612 91.7858 313.805L87.611 316.971C87.4985 317.056 87.4509 317.202 87.4918 317.337L89.0089 322.352C89.1016 322.658 88.7557 322.909 88.4931 322.727L84.1928 319.734C84.0769 319.654 83.9231 319.654 83.8072 319.734L79.5069 322.727C79.2443 322.909 78.8984 322.658 78.9911 322.352L80.5082 317.337C80.5491 317.202 80.5015 317.056 80.389 316.971L76.2142 313.805C75.9592 313.612 76.0913 313.206 76.4112 313.199L81.6492 313.092C81.7903 313.089 81.9147 312.999 81.9611 312.866L83.6812 307.917Z" fill="#FFAB00"/>
</g>
<text id="Alessandro Pedroso" fill="#3C4858" xml:space="preserve" style="white-space: pre" font-family="REM" font-size="19.5921" letter-spacing="0em"><tspan x="-13" y="282.649">Alessandro Pedroso</tspan></text>
<text id="Dom&#195;&#173;nio do neg&#195;&#179;cio, efici&#195;&#170;ncia e agilidade s&#195;&#163;o qualidades da Certivale com certeza. Qualquer assunto relacionado a certificado digital o lugar &#195;&#169; aqui." fill="#8492A6" xml:space="preserve" style="white-space: pre" font-family="REM" font-size="16" letter-spacing="0em"><tspan x="-13" y="360.68">Dom&#xed;nio do neg&#xf3;cio, efici&#xea;ncia e agilidade s&#xe3;o </tspan><tspan x="-13" y="388.68">qualidades da Certivale com certeza. Qualquer assunto </tspan><tspan x="-13" y="416.68">relacionado a certificado digital o lugar &#xe9; aqui.</tspan></text>
</g>
<g id="Group 6">
<text id="4.8 classifica&#195;&#167;&#195;&#163;o de 104 avalia&#195;&#167;&#195;&#181;es" fill="#8492A6" xml:space="preserve" style="white-space: pre" font-family="REM" font-size="16" letter-spacing="0em"><tspan x="246" y="184.2">4.8 classifica&#xe7;&#xe3;o de 104 avalia&#xe7;&#xf5;es</tspan></text>
<g id="Stars_2">
<path id="Star 1_2" d="M120.128 169.07C120.251 168.717 120.749 168.717 120.872 169.07L122.879 174.843C122.933 174.999 123.078 175.104 123.243 175.108L129.354 175.232C129.727 175.24 129.881 175.714 129.583 175.94L124.713 179.632C124.582 179.732 124.526 179.902 124.574 180.06L126.344 185.91C126.452 186.268 126.048 186.561 125.742 186.348L120.725 182.857C120.59 182.762 120.41 182.762 120.275 182.857L115.258 186.348C114.952 186.561 114.548 186.268 114.656 185.91L116.426 180.06C116.474 179.902 116.418 179.732 116.287 179.632L111.417 175.94C111.119 175.714 111.273 175.24 111.646 175.232L117.757 175.108C117.922 175.104 118.067 174.999 118.121 174.843L120.128 169.07Z" fill="#FFAB00"/>
<path id="Star 2_2" d="M145.795 169.07C145.917 168.717 146.416 168.717 146.539 169.07L148.545 174.843C148.599 174.999 148.745 175.104 148.909 175.108L155.02 175.232C155.393 175.24 155.548 175.714 155.25 175.94L150.379 179.632C150.248 179.732 150.193 179.902 150.24 180.06L152.01 185.91C152.118 186.268 151.715 186.561 151.409 186.348L146.392 182.857C146.256 182.762 146.077 182.762 145.942 182.857L140.925 186.348C140.618 186.561 140.215 186.268 140.323 185.91L142.093 180.06C142.141 179.902 142.085 179.732 141.954 179.632L137.083 175.94C136.786 175.714 136.94 175.24 137.313 175.232L143.424 175.108C143.589 175.104 143.734 174.999 143.788 174.843L145.795 169.07Z" fill="#FFAB00"/>
<path id="Star 3_2" d="M171.461 169.07C171.584 168.717 172.083 168.717 172.205 169.07L174.212 174.843C174.266 174.999 174.411 175.104 174.576 175.108L180.687 175.232C181.06 175.24 181.214 175.714 180.917 175.94L176.046 179.632C175.915 179.732 175.859 179.902 175.907 180.06L177.677 185.91C177.785 186.268 177.382 186.561 177.075 186.348L172.058 182.857C171.923 182.762 171.744 182.762 171.608 182.857L166.591 186.348C166.285 186.561 165.881 186.268 165.99 185.91L167.76 180.06C167.807 179.902 167.752 179.732 167.621 179.632L162.75 175.94C162.452 175.714 162.607 175.24 162.98 175.232L169.091 175.108C169.255 175.104 169.401 174.999 169.455 174.843L171.461 169.07Z" fill="#FFAB00"/>
<path id="Star 4_2" d="M197.128 169.07C197.251 168.717 197.749 168.717 197.872 169.07L199.879 174.843C199.933 174.999 200.078 175.104 200.243 175.108L206.354 175.232C206.727 175.24 206.881 175.714 206.583 175.94L201.713 179.632C201.582 179.732 201.526 179.902 201.574 180.06L203.344 185.91C203.452 186.268 203.048 186.561 202.742 186.348L197.725 182.857C197.59 182.762 197.41 182.762 197.275 182.857L192.258 186.348C191.952 186.561 191.548 186.268 191.656 185.91L193.426 180.06C193.474 179.902 193.418 179.732 193.287 179.632L188.417 175.94C188.119 175.714 188.273 175.24 188.646 175.232L194.757 175.108C194.922 175.104 195.067 174.999 195.121 174.843L197.128 169.07Z" fill="#FFAB00"/>
<path id="Star 5_2" d="M222.795 169.07C222.917 168.717 223.416 168.717 223.539 169.07L225.545 174.843C225.599 174.999 225.745 175.104 225.909 175.108L232.02 175.232C232.393 175.24 232.548 175.714 232.25 175.94L227.379 179.632C227.248 179.732 227.193 179.902 227.24 180.06L229.01 185.91C229.118 186.268 228.715 186.561 228.409 186.348L223.392 182.857C223.256 182.762 223.077 182.762 222.942 182.857L217.925 186.348C217.618 186.561 217.215 186.268 217.323 185.91L219.093 180.06C219.141 179.902 219.085 179.732 218.954 179.632L214.083 175.94C213.786 175.714 213.94 175.24 214.313 175.232L220.424 175.108C220.589 175.104 220.734 174.999 220.788 174.843L222.795 169.07Z" fill="#FFAB00"/>
</g>
</g>
<g id="Depoimento_2" filter="url(#filter1_d_505_436)">
<rect x="473" y="229" width="494" height="264" rx="11.1955" fill="white" shape-rendering="crispEdges"/>
<rect x="473.7" y="229.7" width="492.601" height="262.601" rx="10.4958" stroke="#EFF2F7" stroke-width="1.39943" shape-rendering="crispEdges"/>
<g id="Google__G__logo 1_2">
<path id="Vector_5" d="M941.56 265.25C941.56 264.47 941.49 263.72 941.36 263H931V267.26H936.92C936.66 268.63 935.88 269.79 934.71 270.57V273.34H938.28C940.36 271.42 941.56 268.6 941.56 265.25Z" fill="#4285F4"/>
<path id="Vector_6" d="M931 276C933.97 276 936.46 275.02 938.28 273.34L934.71 270.57C933.73 271.23 932.48 271.63 931 271.63C928.14 271.63 925.71 269.7 924.84 267.1H921.18V269.94C922.99 273.53 926.7 276 931 276Z" fill="#34A853"/>
<path id="Vector_7" d="M924.84 267.09C924.62 266.43 924.49 265.73 924.49 265C924.49 264.27 924.62 263.57 924.84 262.91V260.07H921.18C920.43 261.55 920 263.22 920 265C920 266.78 920.43 268.45 921.18 269.93L924.03 267.71L924.84 267.09Z" fill="#FBBC05"/>
<path id="Vector_8" d="M931 258.38C932.62 258.38 934.06 258.94 935.21 260.02L938.36 256.87C936.45 255.09 933.97 254 931 254C926.7 254 922.99 256.47 921.18 260.07L924.84 262.91C925.71 260.31 928.14 258.38 931 258.38Z" fill="#EA4335"/>
</g>
<g id="Stars_3">
<path id="Star 1_3" d="M513.681 307.917C513.786 307.615 514.214 307.615 514.319 307.917L516.039 312.866C516.085 312.999 516.21 313.089 516.351 313.092L521.589 313.199C521.909 313.206 522.041 313.612 521.786 313.805L517.611 316.971C517.498 317.056 517.451 317.202 517.492 317.337L519.009 322.352C519.102 322.658 518.756 322.909 518.493 322.727L514.193 319.734C514.077 319.654 513.923 319.654 513.807 319.734L509.507 322.727C509.244 322.909 508.898 322.658 508.991 322.352L510.508 317.337C510.549 317.202 510.502 317.056 510.389 316.971L506.214 313.805C505.959 313.612 506.091 313.206 506.411 313.199L511.649 313.092C511.79 313.089 511.915 312.999 511.961 312.866L513.681 307.917Z" fill="#FFAB00"/>
<path id="Star 2_3" d="M535.681 307.917C535.786 307.615 536.214 307.615 536.319 307.917L538.039 312.866C538.085 312.999 538.21 313.089 538.351 313.092L543.589 313.199C543.909 313.206 544.041 313.612 543.786 313.805L539.611 316.971C539.498 317.056 539.451 317.202 539.492 317.337L541.009 322.352C541.102 322.658 540.756 322.909 540.493 322.727L536.193 319.734C536.077 319.654 535.923 319.654 535.807 319.734L531.507 322.727C531.244 322.909 530.898 322.658 530.991 322.352L532.508 317.337C532.549 317.202 532.502 317.056 532.389 316.971L528.214 313.805C527.959 313.612 528.091 313.206 528.411 313.199L533.649 313.092C533.79 313.089 533.915 312.999 533.961 312.866L535.681 307.917Z" fill="#FFAB00"/>
<path id="Star 3_3" d="M557.681 307.917C557.786 307.615 558.214 307.615 558.319 307.917L560.039 312.866C560.085 312.999 560.21 313.089 560.351 313.092L565.589 313.199C565.909 313.206 566.041 313.612 565.786 313.805L561.611 316.971C561.498 317.056 561.451 317.202 561.492 317.337L563.009 322.352C563.102 322.658 562.756 322.909 562.493 322.727L558.193 319.734C558.077 319.654 557.923 319.654 557.807 319.734L553.507 322.727C553.244 322.909 552.898 322.658 552.991 322.352L554.508 317.337C554.549 317.202 554.502 317.056 554.389 316.971L550.214 313.805C549.959 313.612 550.091 313.206 550.411 313.199L555.649 313.092C555.79 313.089 555.915 312.999 555.961 312.866L557.681 307.917Z" fill="#FFAB00"/>
<path id="Star 4_3" d="M579.681 307.917C579.786 307.615 580.214 307.615 580.319 307.917L582.039 312.866C582.085 312.999 582.21 313.089 582.351 313.092L587.589 313.199C587.909 313.206 588.041 313.612 587.786 313.805L583.611 316.971C583.498 317.056 583.451 317.202 583.492 317.337L585.009 322.352C585.102 322.658 584.756 322.909 584.493 322.727L580.193 319.734C580.077 319.654 579.923 319.654 579.807 319.734L575.507 322.727C575.244 322.909 574.898 322.658 574.991 322.352L576.508 317.337C576.549 317.202 576.502 317.056 576.389 316.971L572.214 313.805C571.959 313.612 572.091 313.206 572.411 313.199L577.649 313.092C577.79 313.089 577.915 312.999 577.961 312.866L579.681 307.917Z" fill="#FFAB00"/>
<path id="Star 5_3" d="M601.681 307.917C601.786 307.615 602.214 307.615 602.319 307.917L604.039 312.866C604.085 312.999 604.21 313.089 604.351 313.092L609.589 313.199C609.909 313.206 610.041 313.612 609.786 313.805L605.611 316.971C605.498 317.056 605.451 317.202 605.492 317.337L607.009 322.352C607.102 322.658 606.756 322.909 606.493 322.727L602.193 319.734C602.077 319.654 601.923 319.654 601.807 319.734L597.507 322.727C597.244 322.909 596.898 322.658 596.991 322.352L598.508 317.337C598.549 317.202 598.502 317.056 598.389 316.971L594.214 313.805C593.959 313.612 594.091 313.206 594.411 313.199L599.649 313.092C599.79 313.089 599.915 312.999 599.961 312.866L601.681 307.917Z" fill="#FFAB00"/>
</g>
<text id="Evandro Rosa Lopes" fill="#3C4858" xml:space="preserve" style="white-space: pre" font-family="REM" font-size="19.5921" letter-spacing="0em"><tspan x="505" y="282.649">Evandro Rosa Lopes</tspan></text>
<text id="Fui muito bem atendido. Atendimentos atencioso, dedicado. Sanaram todas as mi h&#195;&#161; d&#195;&#186;vidas. Foi tudo muito r&#195;&#161;pido e pr&#195;&#161;tico. Excelente atendimento, muito eficiente." fill="#8492A6" xml:space="preserve" style="white-space: pre" font-family="REM" font-size="16" letter-spacing="0em"><tspan x="505" y="360.68">Fui muito bem atendido. Atendimentos atencioso, </tspan><tspan x="505" y="388.68">dedicado. Sanaram todas as mi h&#xe1; d&#xfa;vidas. Foi tudo </tspan><tspan x="505" y="416.68">muito r&#xe1;pido e pr&#xe1;tico. Excelente atendimento, muito </tspan><tspan x="505" y="444.68">eficiente.</tspan></text>
</g>
<g id="Depoimento_3" filter="url(#filter2_d_505_436)">
<rect x="991" y="229" width="494" height="236" rx="11.1955" fill="white" shape-rendering="crispEdges"/>
<rect x="991.7" y="229.7" width="492.601" height="234.601" rx="10.4958" stroke="#EFF2F7" stroke-width="1.39943" shape-rendering="crispEdges"/>
<g id="Google__G__logo 1_3">
<path id="Vector_9" d="M1449 276C1451.97 276 1454.46 275.02 1456.28 273.34L1452.71 270.57C1451.73 271.23 1450.48 271.63 1449 271.63C1446.14 271.63 1443.71 269.7 1442.84 267.1H1439.18V269.94C1440.99 273.53 1444.7 276 1449 276Z" fill="#34A853"/>
<path id="Vector_10" d="M1442.84 267.09C1442.62 266.43 1442.49 265.73 1442.49 265C1442.49 264.27 1442.62 263.57 1442.84 262.91V260.07H1439.18C1438.43 261.55 1438 263.22 1438 265C1438 266.78 1438.43 268.45 1439.18 269.93L1442.03 267.71L1442.84 267.09Z" fill="#FBBC05"/>
<path id="Vector_11" d="M1449 258.38C1450.62 258.38 1452.06 258.94 1453.21 260.02L1456.36 256.87C1454.45 255.09 1451.97 254 1449 254C1444.7 254 1440.99 256.47 1439.18 260.07L1442.84 262.91C1443.71 260.31 1446.14 258.38 1449 258.38Z" fill="#EA4335"/>
</g>
<g id="Stars_4">
<path id="Star 1_4" d="M1031.68 307.917C1031.79 307.615 1032.21 307.615 1032.32 307.917L1034.04 312.866C1034.09 312.999 1034.21 313.089 1034.35 313.092L1039.59 313.199C1039.91 313.206 1040.04 313.612 1039.79 313.805L1035.61 316.971C1035.5 317.056 1035.45 317.202 1035.49 317.337L1037.01 322.352C1037.1 322.658 1036.76 322.909 1036.49 322.727L1032.19 319.734C1032.08 319.654 1031.92 319.654 1031.81 319.734L1027.51 322.727C1027.24 322.909 1026.9 322.658 1026.99 322.352L1028.51 317.337C1028.55 317.202 1028.5 317.056 1028.39 316.971L1024.21 313.805C1023.96 313.612 1024.09 313.206 1024.41 313.199L1029.65 313.092C1029.79 313.089 1029.91 312.999 1029.96 312.866L1031.68 307.917Z" fill="#FFAB00"/>
<path id="Star 2_4" d="M1053.68 307.917C1053.79 307.615 1054.21 307.615 1054.32 307.917L1056.04 312.866C1056.09 312.999 1056.21 313.089 1056.35 313.092L1061.59 313.199C1061.91 313.206 1062.04 313.612 1061.79 313.805L1057.61 316.971C1057.5 317.056 1057.45 317.202 1057.49 317.337L1059.01 322.352C1059.1 322.658 1058.76 322.909 1058.49 322.727L1054.19 319.734C1054.08 319.654 1053.92 319.654 1053.81 319.734L1049.51 322.727C1049.24 322.909 1048.9 322.658 1048.99 322.352L1050.51 317.337C1050.55 317.202 1050.5 317.056 1050.39 316.971L1046.21 313.805C1045.96 313.612 1046.09 313.206 1046.41 313.199L1051.65 313.092C1051.79 313.089 1051.91 312.999 1051.96 312.866L1053.68 307.917Z" fill="#FFAB00"/>
<path id="Star 3_4" d="M1075.68 307.917C1075.79 307.615 1076.21 307.615 1076.32 307.917L1078.04 312.866C1078.09 312.999 1078.21 313.089 1078.35 313.092L1083.59 313.199C1083.91 313.206 1084.04 313.612 1083.79 313.805L1079.61 316.971C1079.5 317.056 1079.45 317.202 1079.49 317.337L1081.01 322.352C1081.1 322.658 1080.76 322.909 1080.49 322.727L1076.19 319.734C1076.08 319.654 1075.92 319.654 1075.81 319.734L1071.51 322.727C1071.24 322.909 1070.9 322.658 1070.99 322.352L1072.51 317.337C1072.55 317.202 1072.5 317.056 1072.39 316.971L1068.21 313.805C1067.96 313.612 1068.09 313.206 1068.41 313.199L1073.65 313.092C1073.79 313.089 1073.91 312.999 1073.96 312.866L1075.68 307.917Z" fill="#FFAB00"/>
<path id="Star 4_4" d="M1097.68 307.917C1097.79 307.615 1098.21 307.615 1098.32 307.917L1100.04 312.866C1100.09 312.999 1100.21 313.089 1100.35 313.092L1105.59 313.199C1105.91 313.206 1106.04 313.612 1105.79 313.805L1101.61 316.971C1101.5 317.056 1101.45 317.202 1101.49 317.337L1103.01 322.352C1103.1 322.658 1102.76 322.909 1102.49 322.727L1098.19 319.734C1098.08 319.654 1097.92 319.654 1097.81 319.734L1093.51 322.727C1093.24 322.909 1092.9 322.658 1092.99 322.352L1094.51 317.337C1094.55 317.202 1094.5 317.056 1094.39 316.971L1090.21 313.805C1089.96 313.612 1090.09 313.206 1090.41 313.199L1095.65 313.092C1095.79 313.089 1095.91 312.999 1095.96 312.866L1097.68 307.917Z" fill="#FFAB00"/>
<path id="Star 5_4" d="M1119.68 307.917C1119.79 307.615 1120.21 307.615 1120.32 307.917L1122.04 312.866C1122.09 312.999 1122.21 313.089 1122.35 313.092L1127.59 313.199C1127.91 313.206 1128.04 313.612 1127.79 313.805L1123.61 316.971C1123.5 317.056 1123.45 317.202 1123.49 317.337L1125.01 322.352C1125.1 322.658 1124.76 322.909 1124.49 322.727L1120.19 319.734C1120.08 319.654 1119.92 319.654 1119.81 319.734L1115.51 322.727C1115.24 322.909 1114.9 322.658 1114.99 322.352L1116.51 317.337C1116.55 317.202 1116.5 317.056 1116.39 316.971L1112.21 313.805C1111.96 313.612 1112.09 313.206 1112.41 313.199L1117.65 313.092C1117.79 313.089 1117.91 312.999 1117.96 312.866L1119.68 307.917Z" fill="#FFAB00"/>
</g>
<text id="Lucas I. Guedes" fill="#3C4858" xml:space="preserve" style="white-space: pre" font-family="REM" font-size="19.5921" letter-spacing="0em"><tspan x="1023" y="282.649">Lucas I. Guedes</tspan></text>
<text id="Sempre muito bem atendido.Trabalhamos com a Certivale h&#195;&#161; quase 2 anos e sempre prestam um &#195;&#179;timo suporte!" fill="#8492A6" xml:space="preserve" style="white-space: pre" font-family="REM" font-size="16" letter-spacing="0em"><tspan x="1023" y="360.68">Sempre muito bem atendido.Trabalhamos com a </tspan><tspan x="1023" y="388.68">Certivale h&#xe1; quase 2 anos e sempre prestam um &#10;</tspan><tspan x="1023" y="416.68">&#xf3;timo suporte!</tspan></text>
</g>
<text id="O que dizem sobre n&#195;&#179;s" fill="#3C4858" xml:space="preserve" style="white-space: pre" font-family="REM" font-size="40" letter-spacing="0em"><tspan x="110" y="138.2">O que dizem sobre n&#xf3;s</tspan></text>
<g id="Button" filter="url(#filter3_d_505_436)">
<rect x="1098" y="133" width="230" height="48" rx="4" fill="#0086FF" shape-rendering="crispEdges"/>
<rect x="1098.5" y="133.5" width="229" height="47" rx="3.5" stroke="#0086FF" shape-rendering="crispEdges"/>
<text id="Avalie-nos no Google" fill="white" xml:space="preserve" style="white-space: pre" font-family="REM" font-size="18" letter-spacing="0em"><tspan x="1122.31" y="163.39">Avalie-nos no Google</tspan></text>
</g>
</g>
<defs>
<filter id="filter0_d_505_436" x="-78.5864" y="212.207" width="561.173" height="303.173" filterUnits="userSpaceOnUse" color-interpolation-filters="sRGB">
<feFlood flood-opacity="0" result="BackgroundImageFix"/>
<feColorMatrix in="SourceAlpha" type="matrix" values="0 0 0 0 0 0 0 0 0 0 0 0 0 0 0 0 0 0 127 0" result="hardAlpha"/>
<feOffset dy="16.7932"/>
<feGaussianBlur stdDeviation="16.7932"/>
<feComposite in2="hardAlpha" operator="out"/>
<feColorMatrix type="matrix" values="0 0 0 0 0.0705882 0 0 0 0 0.14902 0 0 0 0 0.247059 0 0 0 0.03 0"/>
<feBlend mode="normal" in2="BackgroundImageFix" result="effect1_dropShadow_505_436"/>
<feBlend mode="normal" in="SourceGraphic" in2="effect1_dropShadow_505_436" result="shape"/>
</filter>
<filter id="filter1_d_505_436" x="439.414" y="212.207" width="561.173" height="331.173" filterUnits="userSpaceOnUse" color-interpolation-filters="sRGB">
<feFlood flood-opacity="0" result="BackgroundImageFix"/>
<feColorMatrix in="SourceAlpha" type="matrix" values="0 0 0 0 0 0 0 0 0 0 0 0 0 0 0 0 0 0 127 0" result="hardAlpha"/>
<feOffset dy="16.7932"/>
<feGaussianBlur stdDeviation="16.7932"/>
<feComposite in2="hardAlpha" operator="out"/>
<feColorMatrix type="matrix" values="0 0 0 0 0.0705882 0 0 0 0 0.14902 0 0 0 0 0.247059 0 0 0 0.03 0"/>
<feBlend mode="normal" in2="BackgroundImageFix" result="effect1_dropShadow_505_436"/>
<feBlend mode="normal" in="SourceGraphic" in2="effect1_dropShadow_505_436" result="shape"/>
</filter>
<filter id="filter2_d_505_436" x="957.414" y="212.207" width="561.173" height="303.173" filterUnits="userSpaceOnUse" color-interpolation-filters="sRGB">
<feFlood flood-opacity="0" result="BackgroundImageFix"/>
<feColorMatrix in="SourceAlpha" type="matrix" values="0 0 0 0 0 0 0 0 0 0 0 0 0 0 0 0 0 0 127 0" result="hardAlpha"/>
<feOffset dy="16.7932"/>
<feGaussianBlur stdDeviation="16.7932"/>
<feComposite in2="hardAlpha" operator="out"/>
<feColorMatrix type="matrix" values="0 0 0 0 0.0705882 0 0 0 0 0.14902 0 0 0 0 0.247059 0 0 0 0.03 0"/>
<feBlend mode="normal" in2="BackgroundImageFix" result="effect1_dropShadow_505_436"/>
<feBlend mode="normal" in="SourceGraphic" in2="effect1_dropShadow_505_436" result="shape"/>
</filter>
<filter id="filter3_d_505_436" x="1078" y="113" width="270" height="88" filterUnits="userSpaceOnUse" color-interpolation-filters="sRGB">
<feFlood flood-opacity="0" result="BackgroundImageFix"/>
<feColorMatrix in="SourceAlpha" type="matrix" values="0 0 0 0 0 0 0 0 0 0 0 0 0 0 0 0 0 0 127 0" result="hardAlpha"/>
<feOffset/>
<feGaussianBlur stdDeviation="10"/>
<feComposite in2="hardAlpha" operator="out"/>
<feColorMatrix type="matrix" values="0 0 0 0 0.121569 0 0 0 0 0.176471 0 0 0 0 0.239216 0 0 0 0.08 0"/>
<feBlend mode="normal" in2="BackgroundImageFix" result="effect1_dropShadow_505_436"/>
<feBlend mode="normal" in="SourceGraphic" in2="effect1_dropShadow_505_436" result="shape"/>
</filter>
<clipPath id="clip0_505_436">
<rect width="1440" height="597" fill="white"/>
</clipPath>
</defs>
</svg>
