<svg width="28" height="28" viewBox="0 0 28 28" fill="none" xmlns="http://www.w3.org/2000/svg">
<g id="Camada_1" clip-path="url(#clip0_727_70)">
<path id="Vector" d="M19.7699 27.9554C19.7699 27.9554 18.7412 28.4921 18.361 26.3004C18.2715 25.8084 18.115 25.3164 17.869 24.8915C17.4664 24.1535 17.4217 24.1982 17.4217 24.1982C17.2651 24.0864 17.1757 23.8851 17.198 23.7062C17.2428 23.3707 16.9073 23.4378 16.9073 23.4378C16.9073 23.4378 16.7284 23.4602 16.5495 23.1694C16.3706 22.8787 15.3418 20.2397 15.3418 20.2397C15.2971 20.0832 15.3418 19.9043 15.4313 19.7701C15.6102 19.5912 15.2971 19.3899 15.2971 19.3899C15.2971 19.3899 15.23 19.4346 14.9616 18.473C14.9169 18.3611 14.9169 18.227 14.9393 18.0928C15.0063 17.9139 14.8274 17.7573 14.8274 17.7573C14.7603 17.6678 14.6932 17.6231 14.5814 17.6008C14.4025 17.4666 14.2907 17.2877 14.246 17.064C14.246 17.064 14.246 16.9522 14.0894 16.9746C13.9329 16.9969 14.0894 16.6391 14.0894 16.6391L14.8945 16.3036L19.7699 27.9554ZM19.7699 27.9554C19.7699 27.9554 20.8881 27.5976 19.591 25.7861C19.3003 25.3835 19.0766 24.9139 18.9424 24.4442C18.7188 23.6391 18.7635 23.6391 18.7635 23.6391C18.7859 23.4378 18.7188 23.2589 18.5623 23.1247C18.4504 23.0576 18.4281 22.9234 18.4952 22.8116C18.5175 22.7893 18.5399 22.7445 18.5846 22.7445C18.5846 22.7445 18.7188 22.6327 18.6517 22.2972C18.5846 21.9618 17.444 19.3675 17.444 19.3675C17.3546 19.211 17.198 19.1215 17.0415 19.0992C16.7955 19.0992 16.8626 18.7413 16.8626 18.7413C16.8626 18.7413 16.952 18.719 16.4377 17.8691C16.3929 17.7573 16.3035 17.6455 16.1917 17.5784C16.0351 17.4889 16.0351 17.2653 16.0351 17.2653C16.0127 17.1758 16.0351 17.064 16.0798 16.9746C16.1246 16.7509 16.0575 16.5496 15.9456 16.3707C15.9456 16.3707 15.8786 16.2813 15.9904 16.1918C16.1022 16.1023 15.7667 15.9458 15.7667 15.9458L14.9616 16.2813L19.7699 27.9554Z" fill="#8492A6" fill-opacity="0.75"/>
<path id="Vector_2" d="M8.23003 0.0672926C8.23003 0.0672926 7.11182 0.42512 8.40895 2.23662C8.69968 2.63918 8.92332 3.10883 9.05751 3.57847C9.28115 4.38359 9.23642 4.38359 9.23642 4.38359C9.21406 4.58486 9.28115 4.76378 9.4377 4.89796C9.54952 4.96506 9.57189 5.09924 9.50479 5.21106C9.48243 5.23343 9.46007 5.27816 9.41534 5.27816C9.41534 5.27816 9.28115 5.38998 9.34824 5.72544C9.41534 6.0609 10.5559 8.65515 10.5559 8.65515C10.6454 8.8117 10.8019 8.90116 10.9585 8.92352C11.2045 8.92352 11.1374 9.28135 11.1374 9.28135C11.1374 9.28135 11.0479 9.30371 11.5623 10.1536C11.607 10.2654 11.6965 10.3772 11.8083 10.4443C11.9649 10.5337 11.9649 10.7574 11.9649 10.7574C11.9872 10.8468 11.9649 10.9587 11.9201 11.0481C11.8754 11.2718 11.9425 11.473 12.0543 11.652C12.0543 11.652 12.1214 11.7414 12.0096 11.8309C11.8978 11.9203 12.2332 12.0769 12.2332 12.0769L13.0383 11.7414L8.23003 0.0672926ZM8.23003 0.0672926C8.23003 0.0672926 9.25879 -0.469449 9.63898 1.72224C9.72844 2.21426 9.88499 2.70627 10.131 3.13119C10.5335 3.86921 10.5783 3.82448 10.5783 3.82448C10.7348 3.9363 10.8243 4.13758 10.8019 4.31649C10.7572 4.65196 11.0927 4.58486 11.0927 4.58486C11.0927 4.58486 11.2716 4.58486 11.4505 4.85324C11.6294 5.12161 12.6581 7.78295 12.6581 7.78295C12.7029 7.9395 12.6581 8.11841 12.5687 8.2526C12.3898 8.43151 12.7029 8.63279 12.7029 8.63279C12.7029 8.63279 12.77 8.58806 13.0383 9.54972C13.0831 9.66154 13.0831 9.79573 13.0607 9.92991C12.9936 10.1088 13.1725 10.2654 13.1725 10.2654C13.2396 10.3548 13.3067 10.3996 13.4185 10.4219C13.5974 10.5561 13.7093 10.735 13.754 10.9587C13.754 10.9587 13.754 11.0705 13.9105 11.0481C14.0671 11.0258 13.9105 11.3836 13.9105 11.3836L13.1054 11.7191L8.23003 0.0672926Z" fill="#8492A6" fill-opacity="0.75"/>
<path id="Vector_3" d="M0.0670484 19.7701C0.0670484 19.7701 -0.469693 18.7414 1.722 18.3612C2.21401 18.2717 2.70603 18.1152 3.13095 17.8692C3.86897 17.4666 3.82424 17.4219 3.82424 17.4219C3.93606 17.2653 4.13734 17.1759 4.31625 17.1982C4.65171 17.243 4.58462 16.9075 4.58462 16.9075C4.58462 16.9075 4.58462 16.7286 4.85299 16.5497C5.12136 16.3707 7.7827 15.342 7.7827 15.342C7.93925 15.2973 8.11817 15.342 8.25235 15.4315C8.43127 15.6104 8.63254 15.2973 8.63254 15.2973C8.63254 15.2973 8.58782 15.2302 9.54948 14.9618C9.6613 14.9171 9.79548 14.9171 9.92967 14.9394C10.1086 14.9842 10.2651 14.8276 10.2651 14.8276C10.3546 14.7605 10.3993 14.6934 10.4217 14.5816C10.5559 14.4027 10.7348 14.2909 10.9584 14.2461C10.9584 14.2461 11.0702 14.2461 11.0479 14.0896C11.0255 13.933 11.3833 14.0896 11.3833 14.0896L11.7188 14.8947L0.0670484 19.7701ZM0.0670484 19.7701C0.0670484 19.7701 0.424876 20.8883 2.23638 19.5912C2.63893 19.3005 3.10858 19.0768 3.57823 18.9426C4.38334 18.719 4.38334 18.7637 4.38334 18.7637C4.58462 18.7861 4.76353 18.719 4.89772 18.5624C4.96481 18.4506 5.099 18.4283 5.21082 18.4953C5.23318 18.5177 5.27791 18.5401 5.27791 18.5848C5.27791 18.5848 5.38973 18.719 5.7252 18.6519C6.06066 18.5848 8.65491 17.4442 8.65491 17.4442C8.81146 17.3548 8.90091 17.1982 8.92328 17.0417C8.92328 16.7957 9.28111 16.8628 9.28111 16.8628C9.28111 16.8628 9.30347 16.9522 10.1533 16.4378C10.2651 16.3931 10.377 16.3037 10.444 16.1918C10.5335 16.0353 10.7571 16.0353 10.7571 16.0353C10.8466 16.0129 10.9584 16.0353 11.0479 16.08C11.2715 16.1247 11.4728 16.0576 11.6517 15.9458C11.6517 15.9458 11.7412 15.8787 11.8306 15.9906C11.9201 16.1024 12.0766 15.7669 12.0766 15.7669L11.7412 14.9618L0.0670484 19.7701Z" fill="#8492A6" fill-opacity="0.75"/>
<path id="Vector_4" d="M27.9553 8.23016C27.9553 8.23016 27.5974 7.11195 25.7859 8.40907C25.3834 8.6998 24.9137 8.92345 24.4441 9.05763C23.639 9.28127 23.639 9.23655 23.639 9.23655C23.4377 9.21418 23.2588 9.28127 23.1246 9.43782C23.0575 9.54965 22.9233 9.57201 22.8115 9.50492C22.7891 9.48255 22.7444 9.46019 22.7444 9.41546C22.7444 9.41546 22.6326 9.28127 22.2971 9.34837C21.9617 9.41546 19.3674 10.556 19.3674 10.556C19.2109 10.6455 19.1214 10.802 19.099 10.9586C19.099 11.2046 18.7412 11.1375 18.7412 11.1375C18.7412 11.1375 18.7188 11.048 17.869 11.5624C17.7572 11.6072 17.6454 11.6966 17.5783 11.8084C17.4888 11.965 17.2652 11.965 17.2652 11.965C17.1757 11.9873 17.0639 11.965 16.9744 11.9203C16.7508 11.8755 16.5495 11.9426 16.3706 12.0544C16.3706 12.0544 16.2811 12.1215 16.1917 12.0097C16.1022 11.8979 15.9457 12.2334 15.9457 12.2334L16.2811 13.0385L27.9553 8.23016ZM27.9553 8.23016C27.9553 8.23016 28.492 9.25891 26.3003 9.6391C25.8083 9.72856 25.3163 9.88511 24.8914 10.1311C24.1533 10.5337 24.1981 10.5784 24.1981 10.5784C24.0863 10.7349 23.885 10.8244 23.7061 10.802C23.3706 10.7573 23.4377 11.0928 23.4377 11.0928C23.4377 11.0928 23.4601 11.2717 23.1693 11.4506C22.8786 11.6295 20.2396 12.6583 20.2396 12.6583C20.0831 12.703 19.9041 12.6583 19.77 12.5688C19.591 12.3899 19.3898 12.703 19.3898 12.703C19.3898 12.703 19.4345 12.7701 18.4728 13.0385C18.361 13.0832 18.2268 13.0832 18.0926 13.0608C17.9137 13.0161 17.7572 13.1726 17.7572 13.1726C17.6677 13.2397 17.623 13.3068 17.6006 13.4187C17.4664 13.5976 17.2875 13.7094 17.0639 13.7541C17.0639 13.7541 16.9521 13.7541 16.9744 13.9107C16.9968 14.0672 16.639 13.9107 16.639 13.9107L16.3035 13.1056L27.9553 8.23016Z" fill="#8492A6" fill-opacity="0.75"/>
<path id="Vector_5" d="M27.9553 19.7701C27.9553 19.7701 27.5974 20.8883 25.7859 19.5912C25.3834 19.3005 24.9137 19.0768 24.4441 18.9426C23.639 18.719 23.639 18.7637 23.639 18.7637C23.4377 18.7861 23.2588 18.719 23.1246 18.5624C23.0575 18.4506 22.9233 18.4283 22.8115 18.4953C22.7891 18.5177 22.7444 18.5401 22.7444 18.5848C22.7444 18.5848 22.6326 18.719 22.2971 18.6519C21.9617 18.5848 19.3674 17.4442 19.3674 17.4442C19.2109 17.3548 19.1214 17.1982 19.099 17.0417C19.099 16.7957 18.7412 16.8628 18.7412 16.8628C18.7412 16.8628 18.7188 16.9522 17.869 16.4378C17.7572 16.3931 17.6454 16.3037 17.5783 16.1918C17.4888 16.0353 17.2652 16.0353 17.2652 16.0353C17.1757 16.0129 17.0639 16.0353 16.9744 16.08C16.7508 16.1247 16.5495 16.0576 16.3706 15.9458C16.3706 15.9458 16.2811 15.8787 16.1917 15.9906C16.1022 16.1024 15.9457 15.7669 15.9457 15.7669L16.2811 14.9618L27.9553 19.7701ZM27.9553 19.7701C27.9553 19.7701 28.492 18.7414 26.3003 18.3612C25.8083 18.2717 25.3163 18.1152 24.8914 17.8692C24.1533 17.4666 24.1981 17.4219 24.1981 17.4219C24.0863 17.2653 23.885 17.1759 23.7061 17.1982C23.3706 17.243 23.4377 16.9075 23.4377 16.9075C23.4377 16.9075 23.4601 16.7286 23.1693 16.5497C22.8786 16.3707 20.2396 15.342 20.2396 15.342C20.0831 15.2973 19.9041 15.342 19.77 15.4315C19.591 15.6104 19.3898 15.2973 19.3898 15.2973C19.3898 15.2973 19.4345 15.2302 18.4728 14.9618C18.361 14.9171 18.2268 14.9171 18.0926 14.9394C17.9137 14.9842 17.7572 14.8276 17.7572 14.8276C17.6677 14.7605 17.623 14.6934 17.6006 14.5816C17.4664 14.4027 17.2875 14.2909 17.0639 14.2461C17.0639 14.2461 16.9521 14.2461 16.9744 14.0896C16.9968 13.933 16.639 14.0896 16.639 14.0896L16.3035 14.8947L27.9553 19.7701Z" fill="#8492A6" fill-opacity="0.75"/>
<path id="Vector_6" d="M0.0670484 8.23016C0.0670484 8.23016 -0.469693 9.25891 1.722 9.6391C2.21401 9.72856 2.70603 9.88511 3.13095 10.1311C3.86897 10.5337 3.82424 10.5784 3.82424 10.5784C3.93606 10.7349 4.13734 10.8244 4.31625 10.802C4.65171 10.7573 4.58462 11.0928 4.58462 11.0928C4.58462 11.0928 4.56226 11.2717 4.85299 11.4506C5.14373 11.6295 7.7827 12.6583 7.7827 12.6583C7.93925 12.703 8.11817 12.6583 8.25235 12.5688C8.43127 12.3899 8.63254 12.703 8.63254 12.703C8.63254 12.703 8.58782 12.7701 9.54948 13.0385C9.6613 13.0832 9.79548 13.0832 9.92967 13.0608C10.1086 13.0161 10.2651 13.1726 10.2651 13.1726C10.3546 13.2397 10.3993 13.3068 10.4217 13.4187C10.5559 13.5976 10.7348 13.7094 10.9584 13.7541C10.9584 13.7541 11.0702 13.7541 11.0479 13.9107C11.0255 14.0672 11.3833 13.9107 11.3833 13.9107L11.7188 13.1056L0.0670484 8.23016ZM0.0670484 8.23016C0.0670484 8.23016 0.424876 7.11195 2.23638 8.40907C2.63893 8.6998 3.10858 8.92345 3.57823 9.05763C4.38334 9.28127 4.38334 9.23655 4.38334 9.23655C4.58462 9.21418 4.76353 9.28127 4.89772 9.43782C4.96481 9.54965 5.099 9.57201 5.21082 9.50492C5.23318 9.48255 5.27791 9.46019 5.27791 9.41546C5.27791 9.41546 5.38973 9.28127 5.7252 9.34837C6.06066 9.41546 8.65491 10.556 8.65491 10.556C8.81146 10.6455 8.90091 10.802 8.92328 10.9586C8.92328 11.2046 9.28111 11.1375 9.28111 11.1375C9.28111 11.1375 9.30347 11.048 10.1533 11.5624C10.2651 11.6072 10.377 11.6966 10.444 11.8084C10.5335 11.965 10.7571 11.965 10.7571 11.965C10.8466 11.9873 10.9584 11.965 11.0479 11.9203C11.2715 11.8755 11.4728 11.9426 11.6517 12.0544C11.6517 12.0544 11.7412 12.1215 11.8306 12.0097C11.9201 11.8979 12.0766 12.2334 12.0766 12.2334L11.7412 13.0385L0.0670484 8.23016Z" fill="#8492A6" fill-opacity="0.75"/>
<path id="Vector_7" d="M8.23003 27.9554C8.23003 27.9554 7.11182 27.5976 8.40895 25.7861C8.69968 25.3835 8.92332 24.9139 9.05751 24.4442C9.28115 23.6391 9.23642 23.6391 9.23642 23.6391C9.21406 23.4378 9.28115 23.2589 9.4377 23.1247C9.54952 23.0576 9.57189 22.9234 9.50479 22.8116C9.48243 22.7893 9.46007 22.7445 9.41534 22.7445C9.41534 22.7445 9.28115 22.6327 9.34824 22.2972C9.41534 21.9618 10.5559 19.3675 10.5559 19.3675C10.6454 19.211 10.8019 19.1215 10.9585 19.0992C11.2045 19.0992 11.1374 18.7413 11.1374 18.7413C11.1374 18.7413 11.0479 18.719 11.5623 17.8691C11.607 17.7573 11.6965 17.6455 11.8083 17.5784C11.9649 17.4889 11.9649 17.2653 11.9649 17.2653C11.9872 17.1758 11.9649 17.064 11.9201 16.9746C11.8754 16.7509 11.9425 16.5496 12.0543 16.3707C12.0543 16.3707 12.1214 16.2813 12.0096 16.1918C11.8978 16.1023 12.2332 15.9458 12.2332 15.9458L13.0383 16.2813L8.23003 27.9554ZM8.23003 27.9554C8.23003 27.9554 9.25879 28.4921 9.63898 26.3004C9.72844 25.8084 9.88499 25.3164 10.131 24.8915C10.5335 24.1535 10.5783 24.1982 10.5783 24.1982C10.7348 24.0864 10.8243 23.8851 10.8019 23.7062C10.7572 23.3707 11.0927 23.4378 11.0927 23.4378C11.0927 23.4378 11.2716 23.4602 11.4505 23.1694C11.6294 22.8787 12.6581 20.2397 12.6581 20.2397C12.7029 20.0832 12.6581 19.9043 12.5687 19.7701C12.3898 19.5912 12.7029 19.3899 12.7029 19.3899C12.7029 19.3899 12.77 19.4346 13.0383 18.473C13.0831 18.3611 13.0831 18.227 13.0607 18.0928C13.016 17.9139 13.1725 17.7573 13.1725 17.7573C13.2396 17.6678 13.3067 17.6231 13.4185 17.6008C13.5974 17.4666 13.7093 17.2877 13.754 17.064C13.754 17.064 13.754 16.9522 13.9105 16.9746C14.0671 16.9969 13.9105 16.6391 13.9105 16.6391L13.1054 16.3036L8.23003 27.9554Z" fill="#8492A6" fill-opacity="0.75"/>
<path id="Vector_8" d="M19.7699 0.0669941L14.9393 11.7411L14.1342 11.4057C14.1342 11.4057 14 11.0478 14.1342 11.0702C14.2683 11.0926 14.2907 10.9807 14.2907 10.9807C14.3131 10.7571 14.4473 10.5782 14.6262 10.444C14.7156 10.4216 14.8051 10.3545 14.8722 10.2874C14.8722 10.2874 15.0511 10.1085 14.984 9.95198C14.9616 9.81779 14.9616 9.68361 15.0064 9.57179C15.2524 8.61013 15.3418 8.65485 15.3418 8.65485C15.3418 8.65485 15.6549 8.45358 15.476 8.27466C15.3642 8.14048 15.3418 7.96156 15.3866 7.80501C15.3866 7.80501 16.4153 5.14367 16.5942 4.8753C16.7731 4.60693 16.9521 4.60693 16.9521 4.60693C16.9521 4.60693 17.2652 4.67402 17.2428 4.33856C17.2204 4.13728 17.3099 3.95837 17.4664 3.84655C17.4664 3.84655 17.5112 3.89128 17.9137 3.15326C18.1597 2.70597 18.3163 2.23632 18.4057 1.74431C18.7412 -0.469747 19.7699 0.0669941 19.7699 0.0669941ZM19.7699 0.0669941L14.9393 11.7411L15.7444 12.0766C15.7444 12.0766 16.0798 11.92 15.968 11.8306C15.8562 11.7411 15.9233 11.6517 15.9233 11.6517C16.0575 11.4727 16.1022 11.2715 16.0575 11.0478C16.0128 10.9584 15.9904 10.8689 16.0128 10.7571C16.0128 10.7571 16.0128 10.5111 16.1693 10.444C16.2811 10.3769 16.3706 10.2651 16.4153 10.1533C16.9073 9.28105 16.8402 9.28105 16.8402 9.28105C16.8402 9.28105 16.7731 8.92322 17.0191 8.92322C17.1981 8.90086 17.3322 8.8114 17.4217 8.65485C17.4217 8.65485 18.5623 6.03824 18.6294 5.72514C18.6965 5.41204 18.5623 5.27786 18.5623 5.27786C18.5175 5.25549 18.4952 5.23313 18.4728 5.21076C18.4057 5.09894 18.4281 4.96476 18.5399 4.89767C18.6965 4.76348 18.7636 4.58457 18.7412 4.38329C18.7412 4.38329 18.6741 4.38329 18.9201 3.57818C19.0543 3.08616 19.2779 2.63888 19.5687 2.23632C20.8882 0.402458 19.7699 0.0669941 19.7699 0.0669941Z" fill="#8492A6" fill-opacity="0.75"/>
<path id="Vector_9" d="M16.7284 12.8819C17.3546 14.3803 16.6389 16.1023 15.1405 16.7285C13.6421 17.3547 11.9201 16.6391 11.2939 15.1407C10.6677 13.6423 11.3833 11.9202 12.8818 11.294C14.3802 10.6678 16.1022 11.3611 16.7284 12.8819ZM14.1341 7.49211C10.5782 7.49211 7.71562 10.3771 7.71562 13.933C7.71562 17.4665 10.6006 20.3515 14.1565 20.3515C17.7124 20.3515 20.575 17.4665 20.575 13.9106C20.575 13.0608 20.4185 12.2333 20.083 11.4506C19.099 9.03524 16.7508 7.46974 14.1341 7.49211ZM14.1565 23.08C9.1022 23.08 4.98718 18.9873 4.98718 13.933C4.98718 8.87869 9.07983 4.76367 14.1341 4.76367C17.8466 4.76367 21.1789 7.00009 22.6102 10.4218C24.5559 15.0959 22.3195 20.441 17.6453 22.3867C16.5495 22.834 15.3642 23.08 14.1565 23.08Z" fill="#8492A6" fill-opacity="0.75"/>
</g>
<defs>
<clipPath id="clip0_727_70">
<rect width="28" height="28" fill="white"/>
</clipPath>
</defs>
</svg>
