<svg width="40" height="40" viewBox="0 0 40 40" fill="none" xmlns="http://www.w3.org/2000/svg">
<path d="M37.8292 8.1906C35.1068 2.9059 29.1578 0.385144 23.5173 0.0826533C13.4461 -0.807026 3.35711 5.43852 0.818559 15.4445C-0.646446 20.9367 -0.183813 27.0459 2.52081 32.0933C3.96209 34.6675 6.14478 36.8383 8.81975 38.1728C11.4947 39.5251 14.4485 39.8691 17.1471 39.9581C19.8399 40.0886 22.7284 39.9344 25.3856 39.276C28.0843 38.6414 30.6762 37.639 33.0843 36.3282L31.9989 34.2167C27.4141 36.4646 22.3785 37.378 17.2954 36.9569C12.3429 36.8205 7.7462 34.9166 5.40338 30.486C3.22069 26.3282 2.88262 20.8952 4.0392 16.2926C5.2373 11.5773 8.36897 7.39582 12.6454 5.04113C19.7332 1.06723 31.2575 1.60104 35.4034 9.45988C38.0487 14.62 36.904 22.034 32.1056 25.4622C28.8731 27.7339 24.662 27.9534 20.6821 27.7932C19.6738 27.7517 18.6715 27.5975 17.7047 27.3069C17.4615 27.2357 17.242 27.1586 17.0819 27.0815C16.121 26.6307 15.2314 25.6046 14.7687 24.6556C14.3002 23.7066 14.1104 22.5026 14.1993 21.0435H30.4983L30.8067 19.5073C31.1863 17.5797 31.127 15.8003 30.6288 14.1633C30.1305 12.5263 29.2112 11.1977 27.8708 10.1776C26.5244 9.15739 24.7747 8.64137 22.6157 8.64137C20.4568 8.64137 18.6181 9.05656 16.8565 9.89285C15.089 10.7232 13.6003 11.9391 12.3844 13.5287C11.1744 15.1182 10.3322 17.0577 9.86364 19.3353C9.39507 21.7908 9.53742 23.9142 10.2788 25.7114C11.0262 27.5085 12.1827 28.8964 13.7604 29.8751C14.3713 30.2547 15.35 30.5631 16.3227 30.7944C18.1673 31.2392 20.0594 31.4468 21.9573 31.4172C26.216 31.346 30.8719 30.3614 34.0095 28.0957C40.0001 23.5109 41.1804 14.6556 37.847 8.1906H37.8292ZM17.5801 13.8134C18.8197 12.9059 20.2729 12.4551 21.9396 12.4551C23.6062 12.4551 24.8577 12.9356 25.7059 13.9023C26.554 14.8632 26.9455 16.1503 26.8862 17.7576H14.7925C15.4034 16.0316 16.3346 14.7208 17.5742 13.8134H17.5801Z" fill="currentColor"/>
</svg>
