<svg width="152" height="29" viewBox="0 0 152 29" fill="none" xmlns="http://www.w3.org/2000/svg">
<path d="M18.2424 18.6028L18.1864 18.8743C17.5433 22.0426 15.3491 23.7871 12.0061 23.7871C7.27661 23.7871 4.45285 20.3541 4.45285 14.6048C4.45285 11.8081 5.15199 9.4833 6.47732 7.88475C7.79247 6.29639 9.70327 5.45639 12.0061 5.45639C15.3525 5.45639 17.5467 7.20087 18.1864 10.3691L18.2407 10.6406H22.9227L22.8565 10.2452C21.913 4.56378 17.8555 1.17154 12.0044 1.17154C8.44582 1.17154 5.42522 2.45275 3.27006 4.87942C1.13188 7.28742 0 10.6508 0 14.6048C0 18.5587 1.13019 21.9475 3.27006 24.3589C5.42352 26.7873 8.44412 28.0702 12.0044 28.0702C17.8385 28.0702 21.896 24.678 22.8565 18.9982L22.9227 18.6028H18.239H18.2424Z" fill="#EFF3FB"/>
<path d="M37.4725 21.4608L37.4013 21.7034C36.9092 23.3631 35.6195 24.1691 33.4558 24.1691C32.2255 24.1691 31.0953 23.7025 30.274 22.8574C29.4815 22.0411 29.0318 20.9449 28.9928 19.7468H41.754L41.7862 19.4431C41.8711 18.6319 41.8881 18.0465 41.8881 17.3643C41.8881 12.1105 38.6435 8.71652 33.6221 8.71652C30.8747 8.71652 28.56 9.69567 26.9293 11.5505C25.4224 13.2627 24.5925 15.6571 24.5925 18.2942C24.5925 20.9313 25.4223 23.3427 26.9276 25.06C28.5583 26.9216 30.873 27.9042 33.6221 27.9042C37.7848 27.9042 40.9225 25.5946 41.8117 21.8782L41.9118 21.4591H37.4725V21.4608ZM29.1082 16.4751C29.4001 13.9822 31.1021 12.4516 33.6221 12.4516C36.1421 12.4516 37.7407 13.877 37.8306 16.4751H29.1065H29.1082Z" fill="#EFF3FB"/>
<path d="M52.1632 9.04909C50.3084 9.04909 48.944 9.68036 48.0056 10.9735L47.488 9.04909H43.9142V27.5902H48.2313V18.5606C48.2313 16.6108 48.3891 15.5655 48.8184 14.6898C49.3563 13.4425 50.3881 12.9335 52.3786 12.9335H54.7612V9.04739H52.1615L52.1632 9.04909Z" fill="#EFF3FB"/>
<path d="M67.7244 12.8011V9.04911H63.8536V3.49832H59.5195V8.24135C59.5195 8.60959 59.3906 9.04911 58.7796 9.04911H56.1968V12.8011H59.5195V24.1589C59.5195 26.5313 60.6446 27.5885 63.1663 27.5885H67.7261V23.6532H64.6291C64.0216 23.6532 63.8553 23.4734 63.8553 22.8132V12.8011H67.7261H67.7244Z" fill="#EFF3FB"/>
<path d="M74.7226 9.0491H70.4208V27.5902H74.7226V9.0491Z" fill="#EFF3FB"/>
<path d="M74.7217 3.49832H70.4225V7.67033H74.7217V3.49832Z" fill="#EFF3FB"/>
<path d="M89.6883 9.0491L85.512 22.7352L81.368 9.0491H76.7438L82.7969 27.5902H88.2577L94.3108 9.0491H89.6883Z" fill="#EFF3FB"/>
<path d="M112.367 23.8857C111.584 23.8857 111.294 23.5956 111.294 22.8132V15.4857C111.294 12.5788 110.474 8.71652 103.395 8.71652C98.4073 8.71652 95.7108 10.6986 95.1491 14.7747L95.0965 15.1599H99.49L99.5409 14.8816C99.8921 12.9657 100.987 12.2191 103.444 12.2191C106.025 12.2191 107.126 13.0676 107.126 15.053C107.126 16.3783 106.388 16.4751 105.173 16.4751H101.784C97.3161 16.4751 94.6485 18.5589 94.6485 22.0479C94.6485 25.5369 97.4519 27.9042 101.966 27.9042C104.932 27.9042 106.797 26.9301 107.888 26.0256C108.443 27.076 109.516 27.5885 111.153 27.5885H113.453V23.8857H112.365H112.367ZM102.48 24.4831C101.655 24.4831 98.9639 24.3049 98.9639 22.014C98.9639 20.5088 100.108 19.7451 102.363 19.7451H107.008V20.6683C107.008 23.0576 105.314 24.4831 102.478 24.4831H102.48Z" fill="#EFF3FB"/>
<path d="M120.025 3.49832H115.723V27.5885H120.025V3.49832Z" fill="#EFF3FB"/>
<path d="M135.086 21.4608L135.014 21.7034C134.522 23.3631 133.232 24.1691 131.069 24.1691C129.839 24.1691 128.708 23.7025 127.887 22.8574C127.095 22.0411 126.645 20.9449 126.606 19.7468H139.367L139.399 19.4431C139.484 18.6319 139.501 18.0465 139.501 17.3643C139.501 12.1105 136.256 8.71652 131.235 8.71652C128.488 8.71652 126.173 9.69567 124.542 11.5505C123.035 13.2627 122.206 15.6571 122.206 18.2942C122.206 20.9313 123.035 23.3427 124.541 25.06C126.171 26.9216 128.486 27.9042 131.235 27.9042C135.398 27.9042 138.535 25.5946 139.425 21.8782L139.525 21.4591H135.086V21.4608ZM126.721 16.4751C127.013 13.9822 128.715 12.4516 131.235 12.4516C133.755 12.4516 135.354 13.877 135.444 16.4751H126.72H126.721Z" fill="#EFF3FB"/>
<path d="M145.381 12.6845L148.801 10.9753C150.085 10.3339 150.896 9.02255 150.896 7.5879V1.15728C150.896 1.04056 150.791 0.951224 150.675 0.970282L149.907 1.09832C148.703 1.29902 147.468 1.10726 146.382 0.55162L145.386 0.0424321C145.277 -0.014144 145.147 -0.014144 145.038 0.0424321L144.042 0.55162C142.956 1.10726 141.72 1.29902 140.517 1.09832L139.749 0.970282C139.633 0.951224 139.528 1.03996 139.528 1.15728V7.5879C139.528 9.02255 140.339 10.3339 141.623 10.9753L145.042 12.6845C145.149 12.7381 145.275 12.7381 145.381 12.6845Z" fill="#0086FF"/>
<path d="M145.212 12.7244C145.269 12.7244 145.328 12.7113 145.381 12.6845L148.801 10.9753C150.084 10.3339 150.895 9.02255 150.895 7.5879V1.15728C150.895 1.04056 150.79 0.951226 150.675 0.970283L149.906 1.09833C148.703 1.29902 147.467 1.10726 146.381 0.551622L145.386 0.0424335C145.331 0.0138476 145.271 0.000152588 145.211 0.000152588V12.7244H145.212Z" fill="#0072D9"/>
</svg>
