<svg width="24" height="24" viewBox="0 0 24 24" fill="none" xmlns="http://www.w3.org/2000/svg">
<path d="M22.56 12.25C22.56 11.47 22.49 10.72 22.36 10H12V14.26H17.92C17.66 15.63 16.88 16.79 15.71 17.57V20.34H19.28C21.36 18.42 22.56 15.6 22.56 12.25Z" fill="#4285F4"/>
<path d="M12 22.9999C14.97 22.9999 17.46 22.0199 19.28 20.3399L15.71 17.5699C14.73 18.2299 13.48 18.6299 12 18.6299C9.14004 18.6299 6.71004 16.6999 5.84004 14.0999H2.18004V16.9399C3.99004 20.5299 7.70004 22.9999 12 22.9999Z" fill="#34A853"/>
<path d="M5.84005 14.0901C5.62005 13.4301 5.49005 12.7301 5.49005 12.0001C5.49005 11.2701 5.62005 10.5701 5.84005 9.91007V7.07007H2.18005C1.43005 8.55007 1.00005 10.2201 1.00005 12.0001C1.00005 13.7801 1.43005 15.4501 2.18005 16.9301L5.03005 14.7101L5.84005 14.0901Z" fill="#FBBC05"/>
<path d="M12 5.38C13.62 5.38 15.06 5.94 16.21 7.02L19.36 3.87C17.45 2.09 14.97 1 12 1C7.70004 1 3.99004 3.47 2.18004 7.07L5.84004 9.91C6.71004 7.31 9.14004 5.38 12 5.38Z" fill="#EA4335"/>
</svg>
