<svg width="19" height="19" viewBox="0 0 19 19" fill="none" xmlns="http://www.w3.org/2000/svg">
<path d="M9.12808 1.06997C9.25065 0.717345 9.74935 0.717344 9.87192 1.06997L11.8787 6.84332C11.9328 6.99888 12.078 7.10436 12.2426 7.10771L18.3536 7.23224C18.7268 7.23985 18.8809 7.71414 18.5834 7.93968L13.7128 11.6323C13.5815 11.7318 13.5261 11.9025 13.5738 12.0601L15.3437 17.9104C15.4518 18.2678 15.0484 18.5609 14.7419 18.3477L9.7249 14.8565C9.58972 14.7624 9.41028 14.7624 9.2751 14.8565L4.25806 18.3477C3.95163 18.5609 3.54817 18.2678 3.65628 17.9104L5.42622 12.0601C5.47391 11.9025 5.41846 11.7318 5.28722 11.6323L0.41658 7.93968C0.119089 7.71414 0.273195 7.23985 0.64644 7.23224L6.75736 7.10771C6.92202 7.10436 7.06719 6.99888 7.12126 6.84332L9.12808 1.06997Z" fill="#FFAB00"/>
</svg>
